<svg width="199" height="144" viewBox="0 0 199 144" fill="none" xmlns="http://www.w3.org/2000/svg">
<g clip-path="url(#clip0)">
<path d="M199 0H0V144H199V0Z" fill="white"/>
<path d="M72 20H20V71H72V20Z" fill="#5CA9B6"/>
<path d="M72 73H20V124H72V73Z" fill="#BCC657"/>
<path d="M179 20H74V71H179V20Z" fill="#5CA9B6"/>
<path d="M179 73H74V124H179V73Z" fill="#BCC657"/>
<path d="M101.063 54.0276C100.773 54.1622 100.448 54.3073 100.092 54.4656C99.694 54.6342 99.2839 54.7727 98.8651 54.8799C98.3372 55.0135 97.8026 55.1192 97.2635 55.1965C96.5903 55.2891 95.9113 55.3331 95.2317 55.3284C94.187 55.3567 93.1485 55.1596 92.1868 54.7506C91.3974 54.401 90.704 53.866 90.1656 53.1912C89.6305 52.4922 89.2484 51.6885 89.0442 50.8322C88.8045 49.8576 88.6866 48.8569 88.6933 47.8532C88.6645 46.7023 88.8433 45.5555 89.221 44.4679C89.5243 43.6242 90.0017 42.8538 90.6221 42.2066C91.1856 41.6382 91.8715 41.2059 92.6274 40.9427C93.3762 40.68 94.1638 40.5453 94.9573 40.5443C96.0433 40.533 97.1257 40.6715 98.1738 40.9559C99.0322 41.1885 99.8637 41.5113 100.654 41.919L100.781 41.9876L102.364 37.5231L102.279 37.4703C102.097 37.3542 101.799 37.2064 101.396 36.9927C100.901 36.755 100.39 36.5556 99.8652 36.3964C99.1648 36.1834 98.4519 36.0142 97.7305 35.8898C96.8348 35.7352 95.927 35.661 95.018 35.6681C93.392 35.6515 91.776 35.9231 90.2448 36.4703C88.8171 36.9879 87.5176 37.8068 86.4346 38.8714C85.3386 39.9766 84.4825 41.2962 83.92 42.7475C83.2851 44.4085 82.9734 46.1755 83.0018 47.9535C83.0018 51.8455 84.015 54.8957 86.0124 57.0172C88.0099 59.1386 90.9546 60.2178 94.7594 60.2178C96.3452 60.24 97.9273 60.0582 99.4667 59.6769C100.573 59.4136 101.638 59.0018 102.633 58.4526L102.717 58.3998L101.195 53.9748L101.063 54.0276Z" fill="white"/>
<path d="M119.446 43.9349C118.664 43.1062 117.717 42.4509 116.665 42.0113C115.535 41.5494 114.324 41.3179 113.103 41.3306C111.893 41.3197 110.694 41.5512 109.575 42.0113C108.521 42.4502 107.568 43.1014 106.776 43.9243C105.967 44.7792 105.339 45.7877 104.929 46.8901C104.474 48.1203 104.249 49.4233 104.264 50.7346C104.25 52.0486 104.469 53.3546 104.91 54.5923C105.308 55.7035 105.923 56.7244 106.72 57.595C107.499 58.4286 108.448 59.0862 109.501 59.5238C110.644 59.9932 111.868 60.2291 113.103 60.2178C114.344 60.2332 115.576 60.0009 116.726 59.5344C117.78 59.096 118.729 58.4386 119.51 57.6056C120.303 56.7386 120.907 55.716 121.283 54.6028C121.702 53.3604 121.909 52.0563 121.895 50.7452C121.911 49.4354 121.692 48.1333 121.248 46.9007C120.854 45.8007 120.241 44.7918 119.446 43.9349ZM113.114 55.6635C112.61 55.6844 112.11 55.5737 111.662 55.3423C111.214 55.111 110.834 54.767 110.559 54.3442C109.947 53.4603 109.639 52.2465 109.639 50.732C109.639 49.2174 109.947 48.0142 110.557 47.154C110.841 46.7433 111.224 46.4111 111.671 46.1883C112.119 45.9655 112.615 45.8593 113.114 45.8796C113.61 45.8567 114.105 45.9619 114.549 46.1851C114.994 46.4082 115.374 46.7419 115.652 47.154C116.251 48.0142 116.554 49.2174 116.554 50.732C116.554 52.2465 116.251 53.4603 115.649 54.3442C115.379 54.7688 115.001 55.1144 114.554 55.3461C114.106 55.5777 113.606 55.6872 113.103 55.6635H113.114Z" fill="white"/>
<path d="M139.901 43.9349C139.118 43.1062 138.169 42.4509 137.117 42.0113C135.988 41.5492 134.778 41.3177 133.558 41.3306C132.347 41.32 131.147 41.5514 130.027 42.0113C128.974 42.4509 128.022 43.102 127.23 43.9243C126.422 44.7792 125.794 45.7877 125.383 46.8901C124.929 48.1203 124.703 49.4233 124.718 50.7346C124.705 52.0486 124.923 53.3546 125.365 54.5923C125.762 55.7031 126.377 56.7238 127.172 57.595C127.953 58.428 128.902 59.0855 129.956 59.5238C131.098 59.9936 132.323 60.2296 133.558 60.2178C134.8 60.2346 136.034 60.0031 137.186 59.537C138.24 59.0987 139.189 58.4412 139.969 57.6082C140.763 56.7412 141.366 55.7186 141.743 54.6055C142.162 53.3631 142.369 52.0589 142.355 50.7478C142.37 49.438 142.152 48.136 141.708 46.9033C141.311 45.8025 140.697 44.7929 139.901 43.9349ZM133.568 55.6635C133.064 55.6848 132.563 55.5743 132.115 55.343C131.666 55.1116 131.286 54.7674 131.011 54.3442C130.402 53.4603 130.093 52.2465 130.093 50.732C130.093 49.2174 130.402 48.0142 131.011 47.154C131.295 46.7431 131.679 46.4108 132.126 46.188C132.573 45.9651 133.069 45.859 133.568 45.8796C134.065 45.8551 134.559 45.9596 135.004 46.183C135.448 46.4063 135.827 46.7408 136.104 47.154C136.703 48.0142 137.009 49.2174 137.009 50.732C137.009 52.2465 136.703 53.4603 136.104 54.3442C135.833 54.7688 135.455 55.1144 135.008 55.3461C134.561 55.5777 134.061 55.6872 133.558 55.6635H133.568Z" fill="white"/>
<path d="M162.809 59.5661C162.427 58.822 161.949 57.9829 161.392 57.0963C160.836 56.2097 160.208 55.2889 159.545 54.3944C158.883 53.4999 158.171 52.6212 157.456 51.7769C156.832 51.0387 156.164 50.339 155.456 49.6818C156.759 48.3994 157.981 47.1355 159.084 45.9271C160.187 44.7186 161.377 43.3781 162.564 42.0166L162.743 41.8108H156.456L156.419 41.8557C156.105 42.2356 155.73 42.6789 155.295 43.1908C154.859 43.7027 154.395 44.2463 153.901 44.8136C153.408 45.3809 152.907 45.9455 152.376 46.5313C151.924 47.0274 151.484 47.5067 151.057 47.9693V29.4278L145.798 30.2748V59.7455H151.057V52.1331C151.586 52.5851 152.08 53.0764 152.535 53.6028C153.097 54.2466 153.643 54.9221 154.155 55.6345C154.667 56.3469 155.155 57.0462 155.611 57.7454C156.068 58.4446 156.479 59.099 156.835 59.6822L156.872 59.7402H162.902L162.809 59.5661Z" fill="white"/>
<path d="M91.729 100.787H101.178V96.1509H91.729V91.7408H102.372V87H86.156V111H103.156V106.259H91.729V100.787Z" fill="white"/>
<path d="M119.542 94.017C118.89 93.3257 118.085 92.8123 117.198 92.5218C116.025 92.1463 114.802 91.9714 113.575 92.0038C113.013 92.0038 112.445 92.0332 111.885 92.0893C111.325 92.1453 110.801 92.2147 110.3 92.2948C109.799 92.3749 109.326 92.4684 108.907 92.5618C108.487 92.6553 108.124 92.7621 107.838 92.8555L107.738 92.8876L108.398 97.2263L108.534 97.1756C109.202 96.9243 109.893 96.7454 110.597 96.6416C111.399 96.5185 112.209 96.4569 113.02 96.4574C114.219 96.4574 115.066 96.7083 115.544 97.2023C115.785 97.4661 115.972 97.778 116.095 98.1194C116.217 98.4608 116.272 98.8245 116.257 99.1887V99.5171C115.909 99.4341 115.556 99.3735 115.201 99.3356C114.64 99.2733 114.076 99.2439 113.511 99.2475C112.594 99.2452 111.679 99.3437 110.781 99.5412C109.952 99.717 109.157 100.038 108.431 100.492C107.745 100.93 107.176 101.543 106.777 102.273C106.344 103.104 106.131 104.042 106.158 104.988C106.133 105.953 106.314 106.912 106.69 107.794C107.036 108.547 107.565 109.191 108.224 109.663C108.945 110.159 109.751 110.506 110.597 110.686C111.598 110.901 112.619 111.006 113.642 110.998C115.152 111.016 116.662 110.908 118.157 110.675C119.389 110.459 120.365 110.269 121.061 110.112L121.155 110.09V99.4451C121.165 98.4119 121.043 97.382 120.792 96.3826C120.57 95.4979 120.141 94.6849 119.542 94.017ZM111.458 103.896C111.628 103.636 111.86 103.427 112.131 103.29C112.453 103.129 112.799 103.025 113.153 102.98C113.577 102.922 114.004 102.893 114.432 102.895C114.787 102.897 115.142 102.921 115.495 102.964C115.822 103.001 116.081 103.039 116.262 103.076V106.726C116.019 106.763 115.707 106.79 115.334 106.809C114.907 106.833 114.447 106.844 113.971 106.844C113.265 106.881 112.56 106.728 111.926 106.4C111.453 106.117 111.221 105.613 111.221 104.86C111.207 104.524 111.29 104.191 111.458 103.904V103.896Z" fill="white"/>
<path d="M136.279 106.065C135.779 106.246 135.262 106.381 134.736 106.469C134.194 106.565 133.644 106.614 133.093 106.616C132.02 106.616 131.304 106.325 130.958 105.756C130.612 105.187 130.43 104.359 130.43 103.358V97.4122H136.456V93.1037H130.43V88L125.157 88.821V103.419C125.146 104.457 125.255 105.493 125.479 106.508C125.668 107.382 126.063 108.202 126.633 108.901C127.222 109.589 127.98 110.121 128.837 110.446C129.935 110.842 131.101 111.029 132.271 110.996C133.197 111.014 134.121 110.928 135.027 110.739C135.72 110.577 136.401 110.367 137.064 110.111L137.156 110.072L136.406 106.029L136.279 106.065Z" fill="white"/>
<path d="M53.4776 56.7189C53.4776 57.7285 52.2525 58.5724 50.8187 58.5724H41.7323C40.2984 58.5724 39.1845 57.7285 39.1845 56.7189V55.6979H53.4776V56.7189Z" fill="white"/>
<path d="M38.4925 37.1554C38.5628 37.5456 38.6309 37.9381 38.7012 38.3329C38.8737 39.2994 40.2417 39.0135 40.1011 38.0742C40.0421 37.6817 39.9831 37.2915 39.9264 36.9035C40.5625 35.7234 41.5062 34.7374 42.6574 34.0501C43.8085 33.3629 45.1242 33 46.4649 33C47.8056 33 49.1213 33.3629 50.2725 34.0501C51.4237 34.7374 52.3673 35.7234 53.0035 36.9035C53.0035 37.3437 52.9831 37.7884 52.974 38.233C52.9513 39.2154 54.3488 39.2086 54.3965 38.2557C54.4124 37.9517 54.426 37.65 54.4419 37.3482C55.5296 37.6878 56.474 38.3785 57.1272 39.3122C57.7803 40.246 58.1054 41.3699 58.0514 42.5082C57.9975 43.6464 57.5676 44.7346 56.829 45.6023C56.0904 46.4701 55.0849 47.0684 53.97 47.3035L52.4476 47.0381C51.4811 46.8702 51.277 48.2519 52.2208 48.4402L53.4776 48.6648V54.3367C50.3014 54.3231 42.1316 54.3503 39.1845 54.3367V48.6648L40.7703 48.2564C41.721 48.0295 41.3443 46.6683 40.4142 46.8793L38.3065 47.3466C37.0865 47.1436 35.9802 46.5084 35.1897 45.5572C34.3992 44.606 33.9773 43.4022 34.0009 42.1656C34.0246 40.929 34.4923 39.7422 35.3186 38.8219C36.1449 37.9017 37.2747 37.3093 38.5016 37.1531L38.4925 37.1554Z" fill="white"/>
<path d="M39.202 98.2123C39.2728 96.5243 39.3412 94.8731 39.4073 93.2587C39.6031 88.3673 39.8014 86.1368 39.9972 81.2477C40.0539 79.8367 41.4132 79.8067 41.4132 81.2201C41.4415 86.1046 41.4627 88.3328 41.4887 93.2196C41.4981 94.8324 41.5068 96.4806 41.5147 98.164C41.5147 99.1446 42.7395 99.0985 42.7583 98.1456C42.7914 96.4652 42.822 94.8125 42.8527 93.1966C42.9448 88.3075 43.0392 86.077 43.1288 81.1879C43.1572 79.7768 44.5141 79.7492 44.5448 81.1602C44.6746 86.0447 44.8044 88.2706 44.9318 93.1552C44.9743 94.7711 45.0183 96.4192 45.064 98.0995C45.0876 99.0686 46.3076 99.0364 46.3076 98.0857C46.3076 96.3977 46.3037 94.745 46.2958 93.1275C46.2958 88.243 46.2746 86.0148 46.2604 81.128C46.2604 79.7193 47.615 79.6893 47.6764 81.1027C47.9124 85.9826 48.1484 88.2062 48.3843 93.0884C48.4622 94.6997 48.5401 96.357 48.6203 98.0374C48.6652 98.988 49.8829 98.9834 49.8616 98.0144C49.8239 96.3263 49.7853 94.6767 49.746 93.0654C49.6304 88.1809 49.51 85.955 49.3967 81.0705C49.3637 79.6617 50.723 79.6341 50.8127 81.0428C51.1525 85.9228 51.49 88.1463 51.8274 93.0263C51.9407 94.6376 52.0634 96.2903 52.1696 97.9683C52.29 99.7592 52.0021 101.727 51.0652 103.263C49.5029 105.834 48.4693 105.76 47.9737 108.84V117L43.6811 116.21V108.769C43.0934 105.834 42.081 105.965 40.4503 103.463C39.5465 102.024 39.1382 99.987 39.202 98.2123Z" fill="white"/>
</g>
<defs>
<clipPath id="clip0">
<rect width="199" height="144" fill="white"/>
</clipPath>
</defs>
</svg>
