<svg width="36" height="36" viewBox="0 0 36 36" fill="none" xmlns="http://www.w3.org/2000/svg">
<g opacity="0.7">
<path fill-rule="evenodd" clip-rule="evenodd" d="M26 14.5C26 20.8513 20.8513 26 14.5 26C8.14873 26 3 20.8513 3 14.5C3 8.14873 8.14873 3 14.5 3C20.8513 3 26 8.14873 26 14.5ZM23.0801 26.1902C20.6776 27.9565 17.7106 29 14.5 29C6.49187 29 0 22.5081 0 14.5C0 6.49187 6.49187 0 14.5 0C22.5081 0 29 6.49187 29 14.5C29 18.2117 27.6054 21.5976 25.3116 24.1624L35.0035 32.8851C35.6192 33.4393 35.6691 34.3877 35.115 35.0035C34.5608 35.6192 33.6123 35.6691 32.9966 35.115L23.0801 26.1902Z" fill="#45423B"/>
</g>
</svg>
