<?xml version="1.0" encoding="UTF-8"?>
<svg xmlns="http://www.w3.org/2000/svg" xmlns:xlink="http://www.w3.org/1999/xlink" width="100pt" height="68pt" viewBox="0 0 100 68" version="1.1">
<g id="surface1">
<path style=" stroke:none;fill-rule:nonzero;fill:rgb(100%,100%,100%);fill-opacity:1;" d="M 0 0 L 99.855469 0 L 99.855469 67.507812 L 0 67.507812 Z M 0 0 "/>
<path style=" stroke:none;fill-rule:nonzero;fill:rgb(36.078431%,66.27451%,71.372549%);fill-opacity:1;" d="M 8.324219 8.445312 L 33.019531 8.445312 L 33.019531 33.429688 L 8.324219 33.429688 Z M 8.324219 8.445312 "/>
<path style=" stroke:none;fill-rule:nonzero;fill:rgb(97.647059%,98.431373%,99.215686%);fill-opacity:1;" d="M 24.542969 16.019531 C 24.417969 16.019531 24.296875 16.027344 24.175781 16.042969 C 23.472656 14.605469 22.027344 13.6875 20.441406 13.683594 C 18.859375 13.679688 17.40625 14.585938 16.695312 16.023438 C 15.171875 16.070312 13.953125 17.3125 13.910156 18.859375 C 13.867188 20.402344 15.015625 21.714844 16.535156 21.851562 L 16.535156 27.152344 C 16.535156 27.726562 17.183594 28.195312 17.988281 28.195312 L 23.085938 28.195312 C 23.890625 28.195312 24.539062 27.726562 24.539062 27.152344 L 24.539062 21.863281 C 25.574219 21.867188 26.527344 21.3125 27.042969 20.40625 C 27.5625 19.5 27.5625 18.382812 27.042969 17.476562 C 26.527344 16.570312 25.574219 16.011719 24.539062 16.015625 Z M 24.542969 16.019531 "/>
<path style=" stroke:none;fill-rule:nonzero;fill:rgb(73.72549%,77.647059%,34.117647%);fill-opacity:1;" d="M 8.324219 34.152344 L 33.019531 34.152344 L 33.019531 59.128906 L 8.324219 59.128906 Z M 8.324219 34.152344 "/>
<path style=" stroke:none;fill-rule:nonzero;fill:rgb(36.078431%,66.27451%,71.372549%);fill-opacity:1;" d="M 33.707031 8.445312 L 91.585938 8.445312 L 91.585938 33.429688 L 33.707031 33.429688 Z M 33.707031 8.445312 "/>
<path style=" stroke:none;fill-rule:nonzero;fill:rgb(73.72549%,77.647059%,34.117647%);fill-opacity:1;" d="M 33.707031 34.152344 L 91.585938 34.152344 L 91.585938 59.128906 L 33.707031 59.128906 Z M 33.707031 34.152344 "/>
<path style=" stroke:none;fill-rule:evenodd;fill:rgb(97.647059%,98.431373%,99.215686%);fill-opacity:1;" d="M 25.203125 50.988281 C 28.464844 54.890625 27.09375 56.066406 23.832031 52.164062 C 23.222656 51.4375 22.230469 49.765625 21.207031 48.363281 C 20.980469 48.007812 20.867188 48.363281 20.730469 48.242188 C 19.796875 47.214844 16.679688 44.476562 15.234375 42.253906 C 14.8125 41.601562 14.273438 40.710938 14.621094 39.917969 C 14.886719 39.3125 15.539062 38.9375 15.96875 39.476562 L 21.894531 47.070312 C 22.089844 47.316406 21.777344 47.292969 21.980469 47.519531 L 22.058594 47.609375 C 23.214844 48.914062 24.605469 50.273438 25.203125 50.992188 "/>
<path style=" stroke:none;fill-rule:nonzero;fill:rgb(97.647059%,98.431373%,99.215686%);fill-opacity:1;" d="M 47.566406 18.882812 C 47.335938 18.570312 47.035156 18.316406 46.691406 18.136719 C 46.425781 18.015625 46.140625 17.949219 45.851562 17.949219 C 45.148438 17.949219 44.636719 18.277344 44.324219 18.941406 C 44.007812 19.601562 43.851562 20.515625 43.84375 21.683594 C 43.839844 22.199219 43.875 22.707031 43.949219 23.21875 C 44.003906 23.628906 44.128906 24.03125 44.316406 24.402344 C 44.472656 24.71875 44.710938 24.984375 45.003906 25.175781 C 45.324219 25.371094 45.703125 25.46875 46.082031 25.453125 C 46.453125 25.453125 46.828125 25.410156 47.1875 25.3125 C 47.527344 25.230469 47.859375 25.125 48.183594 24.996094 L 48.769531 26.832031 C 48.359375 26.996094 47.9375 27.121094 47.507812 27.207031 C 46.929688 27.324219 46.34375 27.378906 45.753906 27.371094 C 44.09375 27.371094 42.878906 26.890625 42.109375 25.9375 C 41.34375 24.984375 40.960938 23.625 40.964844 21.867188 C 40.960938 21.074219 41.058594 20.285156 41.265625 19.519531 C 41.441406 18.851562 41.746094 18.230469 42.167969 17.683594 C 42.574219 17.160156 43.09375 16.746094 43.691406 16.46875 C 44.371094 16.164062 45.109375 16.015625 45.855469 16.035156 C 46.242188 16.03125 46.625 16.070312 47 16.148438 C 47.300781 16.214844 47.589844 16.316406 47.867188 16.453125 C 48.101562 16.566406 48.324219 16.71875 48.523438 16.886719 C 48.703125 17.046875 48.875 17.214844 49.03125 17.394531 Z M 47.566406 18.882812 "/>
<path style=" stroke:none;fill-rule:nonzero;fill:rgb(97.647059%,98.431373%,99.215686%);fill-opacity:1;" d="M 56.933594 16.425781 C 57.523438 16.667969 58.046875 17.050781 58.460938 17.539062 C 58.878906 18.054688 59.175781 18.65625 59.34375 19.304688 C 59.539062 20.0625 59.636719 20.847656 59.625 21.636719 C 59.636719 22.425781 59.527344 23.210938 59.3125 23.972656 C 59.121094 24.632812 58.800781 25.25 58.363281 25.78125 C 57.929688 26.292969 57.386719 26.691406 56.773438 26.949219 C 56.058594 27.246094 55.296875 27.390625 54.523438 27.371094 C 53.769531 27.390625 53.019531 27.261719 52.3125 27.003906 C 51.722656 26.777344 51.195312 26.40625 50.785156 25.921875 C 50.371094 25.421875 50.070312 24.828125 49.902344 24.191406 C 49.699219 23.4375 49.609375 22.652344 49.617188 21.867188 C 49.609375 21.074219 49.71875 20.277344 49.933594 19.515625 C 50.125 18.839844 50.449219 18.207031 50.882812 17.664062 C 51.3125 17.136719 51.855469 16.726562 52.476562 16.457031 C 53.914062 15.902344 55.5 15.890625 56.941406 16.425781 Z M 52.96875 18.941406 C 52.652344 19.601562 52.492188 20.515625 52.492188 21.683594 C 52.488281 22.191406 52.523438 22.703125 52.597656 23.207031 C 52.65625 23.621094 52.777344 24.023438 52.957031 24.394531 C 53.109375 24.710938 53.347656 24.980469 53.644531 25.167969 C 53.976562 25.363281 54.359375 25.460938 54.746094 25.445312 C 55.398438 25.480469 56.007812 25.101562 56.269531 24.496094 C 56.585938 23.859375 56.742188 22.964844 56.742188 21.792969 C 56.746094 21.273438 56.710938 20.761719 56.636719 20.25 C 56.578125 19.828125 56.460938 19.414062 56.28125 19.03125 C 55.96875 18.328125 55.261719 17.894531 54.503906 17.9375 C 53.800781 17.945312 53.289062 18.277344 52.96875 18.941406 Z M 52.96875 18.941406 "/>
<path style=" stroke:none;fill-rule:nonzero;fill:rgb(97.647059%,98.431373%,99.215686%);fill-opacity:1;" d="M 68.164062 16.425781 C 68.753906 16.667969 69.277344 17.050781 69.691406 17.539062 C 70.105469 18.054688 70.40625 18.65625 70.574219 19.304688 C 70.769531 20.0625 70.867188 20.847656 70.855469 21.636719 C 70.867188 22.425781 70.757812 23.210938 70.539062 23.972656 C 70.351562 24.636719 70.027344 25.25 69.59375 25.78125 C 69.160156 26.292969 68.609375 26.691406 67.996094 26.949219 C 67.28125 27.242188 66.515625 27.382812 65.742188 27.367188 C 64.988281 27.382812 64.242188 27.257812 63.53125 27 C 62.945312 26.773438 62.417969 26.402344 62.007812 25.914062 C 61.589844 25.410156 61.289062 24.824219 61.121094 24.1875 C 60.921875 23.429688 60.828125 22.644531 60.839844 21.863281 C 60.832031 21.066406 60.9375 20.273438 61.152344 19.511719 C 61.347656 18.832031 61.667969 18.207031 62.101562 17.660156 C 62.53125 17.132812 63.078125 16.71875 63.699219 16.453125 C 65.132812 15.898438 66.71875 15.886719 68.164062 16.421875 Z M 64.199219 18.941406 C 63.882812 19.601562 63.722656 20.515625 63.722656 21.683594 C 63.71875 22.191406 63.753906 22.703125 63.828125 23.207031 C 63.882812 23.621094 64.003906 24.023438 64.183594 24.394531 C 64.339844 24.710938 64.578125 24.980469 64.871094 25.167969 C 65.207031 25.363281 65.589844 25.460938 65.972656 25.445312 C 66.628906 25.480469 67.234375 25.101562 67.503906 24.496094 C 67.816406 23.863281 67.972656 22.964844 67.972656 21.792969 C 67.976562 21.277344 67.9375 20.761719 67.867188 20.25 C 67.808594 19.828125 67.6875 19.414062 67.507812 19.03125 C 67.199219 18.328125 66.492188 17.894531 65.734375 17.9375 C 65.027344 17.945312 64.519531 18.277344 64.199219 18.941406 Z M 64.199219 18.941406 "/>
<path style=" stroke:none;fill-rule:nonzero;fill:rgb(97.647059%,98.431373%,99.215686%);fill-opacity:1;" d="M 72.46875 16.179688 L 75.140625 16.179688 L 75.140625 27.273438 L 72.46875 27.273438 Z M 80.496094 18.175781 C 80.324219 18.679688 80.101562 19.167969 79.839844 19.628906 C 79.625 20.003906 79.371094 20.351562 79.078125 20.667969 C 78.816406 20.945312 78.535156 21.203125 78.234375 21.441406 L 82.027344 27.273438 L 79.046875 27.273438 L 75.320312 21.195312 L 75.320312 21 C 75.757812 20.792969 76.167969 20.519531 76.527344 20.1875 C 76.855469 19.875 77.136719 19.515625 77.363281 19.121094 C 77.597656 18.699219 77.792969 18.257812 77.9375 17.792969 C 78.089844 17.308594 78.234375 16.769531 78.363281 16.183594 L 81.019531 16.183594 C 80.898438 16.859375 80.722656 17.527344 80.496094 18.175781 Z M 80.496094 18.175781 "/>
<path style=" stroke:none;fill-rule:nonzero;fill:rgb(97.647059%,98.431373%,99.215686%);fill-opacity:1;" d="M 41.328125 41.394531 L 48.3125 41.394531 L 48.3125 43.375 L 44.003906 43.375 L 44.003906 45.753906 L 47.585938 45.753906 L 47.277344 47.703125 L 44.003906 47.703125 L 44.003906 50.507812 L 48.542969 50.507812 L 48.542969 52.488281 L 41.328125 52.488281 Z M 41.328125 41.394531 "/>
<path style=" stroke:none;fill-rule:nonzero;fill:rgb(97.647059%,98.431373%,99.215686%);fill-opacity:1;" d="M 53.488281 41.394531 L 55.867188 41.394531 L 59.890625 52.488281 L 57.183594 52.488281 L 56.371094 49.816406 L 52.820312 49.816406 L 51.980469 52.488281 L 49.332031 52.488281 Z M 55.777344 47.816406 C 55.667969 47.503906 55.558594 47.171875 55.445312 46.828125 C 55.332031 46.480469 55.222656 46.148438 55.121094 45.820312 C 55.019531 45.492188 54.921875 45.183594 54.835938 44.894531 C 54.753906 44.605469 54.675781 44.363281 54.613281 44.164062 C 54.542969 44.371094 54.472656 44.621094 54.382812 44.910156 C 54.296875 45.199219 54.203125 45.507812 54.101562 45.835938 C 53.996094 46.164062 53.890625 46.5 53.777344 46.835938 C 53.664062 47.171875 53.550781 47.503906 53.441406 47.816406 Z M 55.777344 47.816406 "/>
<path style=" stroke:none;fill-rule:nonzero;fill:rgb(97.647059%,98.431373%,99.215686%);fill-opacity:1;" d="M 66.539062 41.394531 L 66.199219 43.375 L 63.671875 43.375 L 63.671875 52.484375 L 61 52.484375 L 61 43.375 L 58.390625 43.375 L 58.390625 41.394531 Z M 66.539062 41.394531 "/>
<path style=" stroke:none;fill-rule:nonzero;fill:rgb(97.647059%,98.431373%,99.215686%);fill-opacity:1;" d="M 20.902344 48.671875 C 20.671875 48.316406 20.5625 48.671875 20.421875 48.554688 C 20.296875 48.417969 20.132812 48.242188 19.933594 48.046875 C 18.875 49.152344 17.613281 50.332031 17.105469 50.976562 C 13.980469 54.992188 15.621094 56.292969 18.746094 52.28125 C 19.207031 51.683594 19.890625 50.433594 20.640625 49.203125 L 20.945312 48.734375 Z M 20.902344 48.671875 "/>
<path style=" stroke:none;fill-rule:nonzero;fill:rgb(97.647059%,98.431373%,99.215686%);fill-opacity:1;" d="M 27.8125 40.789062 L 25.585938 43.710938 L 24.835938 44.699219 C 24.796875 44.75 24.738281 44.777344 24.671875 44.769531 C 24.609375 44.761719 24.550781 44.71875 24.527344 44.660156 C 24.507812 44.597656 24.519531 44.527344 24.558594 44.476562 L 25.285156 43.46875 L 27.429688 40.484375 C 27.636719 40.195312 27.339844 39.953125 27.117188 40.230469 L 24.828125 43.09375 L 24.039062 44.070312 C 24.003906 44.125 23.941406 44.15625 23.875 44.148438 C 23.8125 44.144531 23.75 44.097656 23.730469 44.035156 C 23.703125 43.972656 23.71875 43.902344 23.761719 43.851562 L 24.511719 42.859375 C 25.25 41.882812 25.992188 40.90625 26.730469 39.929688 C 26.941406 39.648438 26.640625 39.40625 26.410156 39.671875 L 24.046875 42.484375 L 23.242188 43.433594 C 23.203125 43.488281 23.140625 43.515625 23.074219 43.507812 C 23.011719 43.5 22.957031 43.457031 22.933594 43.394531 C 22.910156 43.332031 22.921875 43.265625 22.964844 43.214844 L 23.738281 42.242188 L 26.027344 39.367188 C 26.246094 39.09375 25.945312 38.851562 25.710938 39.109375 L 23.273438 41.867188 L 22.453125 42.796875 C 22.136719 43.140625 21.941406 43.582031 21.902344 44.050781 C 21.867188 44.847656 22.117188 45.003906 21.746094 45.734375 L 21.527344 46.035156 L 22.230469 46.945312 C 22.28125 46.886719 22.296875 46.871094 22.347656 46.8125 C 23.253906 45.851562 23.375 46.191406 24.269531 45.929688 C 24.710938 45.785156 25.085938 45.492188 25.351562 45.101562 L 26.050781 44.074219 L 28.125 41.035156 C 28.332031 40.753906 28.027344 40.507812 27.8125 40.789062 Z M 27.8125 40.789062 "/>
</g>
</svg>
